<svg width="320" height="49" viewBox="0 0 320 49" fill="none" xmlns="http://www.w3.org/2000/svg">
<rect x="148" width="172" height="49" fill="#22CAFF"/>
<path d="M178.176 17.624C178.176 21.112 176.752 23.496 173.904 24.776C176.528 25.64 178.32 27.224 179.28 29.528C179.632 30.424 179.808 31.464 179.808 32.648C179.808 36.488 177.776 39.048 173.712 40.328C172.368 40.776 170.784 41 168.96 41H153.888V9.224H168.144C171.568 9.224 174.176 10.152 175.968 12.008C177.44 13.48 178.176 15.352 178.176 17.624ZM157.488 23.432H168.144C171.088 23.432 173.056 22.424 174.048 20.408C174.4 19.704 174.576 18.952 174.576 18.152C174.576 17.32 174.464 16.6 174.24 15.992C174.016 15.352 173.664 14.792 173.184 14.312C172.128 13.192 170.576 12.632 168.528 12.632H157.488V23.432ZM169.344 37.592C171.552 37.592 173.248 37.144 174.432 36.248C175.616 35.32 176.208 34.024 176.208 32.36C176.208 30.76 175.632 29.448 174.48 28.424C173.2 27.272 171.36 26.696 168.96 26.696H157.488V37.592H169.344ZM199.781 8.84C204.517 8.84 208.405 10.424 211.445 13.592C214.421 16.664 215.909 20.504 215.909 25.112C215.909 29.72 214.421 33.56 211.445 36.632C208.405 39.8 204.517 41.384 199.781 41.384C195.045 41.384 191.157 39.8 188.117 36.632C185.141 33.56 183.653 29.72 183.653 25.112C183.653 20.504 185.141 16.664 188.117 13.592C191.157 10.424 195.045 8.84 199.781 8.84ZM199.781 37.88C203.557 37.88 206.613 36.648 208.949 34.184C211.189 31.816 212.309 28.792 212.309 25.112C212.309 21.432 211.189 18.408 208.949 16.04C206.613 13.576 203.557 12.344 199.781 12.344C196.005 12.344 192.949 13.576 190.613 16.04C188.373 18.408 187.253 21.432 187.253 25.112C187.253 28.792 188.373 31.816 190.613 34.184C192.949 36.648 196.005 37.88 199.781 37.88ZM248.804 41H244.82L240.932 31.784H225.188L221.3 41H217.316L230.804 9.224H235.316L248.804 41ZM239.54 28.472L233.06 12.968L226.58 28.472H239.54ZM256.441 41H252.841V9.224H268.057C271.289 9.224 273.881 10.12 275.833 11.912C277.785 13.672 278.761 16.088 278.761 19.16C278.761 23.128 277.113 25.832 273.817 27.272C272.889 27.688 271.977 27.992 271.081 28.184L279.433 41H275.161L267.481 28.808H256.441V41ZM256.441 25.4H267.433C270.825 25.4 273.161 24.344 274.441 22.232C274.921 21.432 275.161 20.408 275.161 19.16C275.161 17.144 274.473 15.56 273.097 14.408C271.721 13.224 269.897 12.632 267.625 12.632H256.441V25.4ZM298.343 9.224C300.231 9.224 302.055 9.592 303.815 10.328C305.575 11.032 307.127 12.072 308.471 13.448C311.447 16.488 312.935 20.376 312.935 25.112C312.935 29.848 311.447 33.736 308.471 36.776C307.127 38.152 305.575 39.208 303.815 39.944C302.055 40.648 300.231 41 298.343 41H284.951V9.224H298.343ZM298.199 37.592C301.527 37.592 304.231 36.36 306.311 33.896C308.327 31.528 309.335 28.6 309.335 25.112C309.335 21.624 308.327 18.696 306.311 16.328C304.231 13.864 301.527 12.632 298.199 12.632H288.551V37.592H298.199Z" fill="white"/>
<path d="M7.536 16.12C6.928 16.632 6.512 17.208 6.288 17.848C6.096 18.488 6 19.176 6 19.912C6 20.616 6.304 21.272 6.912 21.88C7.552 22.488 8.384 23 9.408 23.416C10.432 23.832 11.6 24.2 12.912 24.52C14.224 24.84 15.552 25.176 16.896 25.528C18.272 25.848 19.616 26.232 20.928 26.68C22.24 27.096 23.408 27.64 24.432 28.312C26.704 29.752 27.84 31.72 27.84 34.216C27.84 37.192 26.72 39.464 24.48 41.032C22.272 42.6 19.2 43.384 15.264 43.384C10.816 43.384 7.424 42.456 5.088 40.6C3.008 38.936 1.824 36.568 1.536 33.496H5.28C5.408 35.672 6.464 37.336 8.448 38.488C10.176 39.48 12.464 39.976 15.312 39.976C21.264 39.976 24.24 38.104 24.24 34.36C24.24 33.08 23.696 32.072 22.608 31.336C21.552 30.6 20.208 29.992 18.576 29.512C16.976 29.032 15.232 28.584 13.344 28.168C11.488 27.752 9.744 27.224 8.112 26.584C6.512 25.912 5.168 25.048 4.08 23.992C3.024 22.904 2.496 21.448 2.496 19.624C2.496 17.032 3.488 14.92 5.472 13.288C7.456 11.656 10.448 10.84 14.448 10.84C18.48 10.84 21.6 11.768 23.808 13.624C25.824 15.256 26.896 17.352 27.024 19.912H23.328C23.008 17.288 21.312 15.544 18.24 14.68C17.152 14.36 15.792 14.2 14.16 14.2C12.56 14.2 11.2 14.392 10.08 14.776C8.992 15.128 8.144 15.576 7.536 16.12ZM43.7393 40.12C45.2753 40.12 46.6353 39.688 47.8193 38.824C49.0033 37.96 49.8673 36.84 50.4113 35.464H54.2993C53.5633 37.832 52.2193 39.736 50.2673 41.176C48.2193 42.648 45.7873 43.384 42.9713 43.384C39.4513 43.384 36.5873 42.184 34.3793 39.784C32.2353 37.448 31.1633 34.52 31.1633 31C31.1633 27.48 32.2353 24.552 34.3793 22.216C36.5873 19.816 39.4513 18.616 42.9713 18.616C45.7873 18.616 48.2193 19.352 50.2673 20.824C52.2193 22.264 53.5633 24.168 54.2993 26.536H50.4113C49.8673 25.16 49.0033 24.04 47.8193 23.176C46.6353 22.312 45.2753 21.88 43.7393 21.88C42.2033 21.88 40.8913 22.12 39.8033 22.6C38.7473 23.08 37.8513 23.736 37.1153 24.568C35.5473 26.296 34.7633 28.44 34.7633 31C34.7633 33.56 35.5473 35.704 37.1153 37.432C38.7153 39.224 40.9233 40.12 43.7393 40.12ZM71.4326 18.616V22.216H71.0006C68.4086 22.216 66.2966 23.256 64.6646 25.336C63.1286 27.32 62.3606 29.688 62.3606 32.44V43H58.7606V19H62.3606V24.904C63.1286 22.408 64.7926 20.568 67.3526 19.384C68.4086 18.872 69.6886 18.616 71.1926 18.616H71.4326ZM92.6355 43V39.256C91.7715 40.408 90.7155 41.384 89.4675 42.184C88.2195 42.984 86.7955 43.384 85.1955 43.384C83.5955 43.384 82.2195 43.16 81.0675 42.712C79.9155 42.264 78.9075 41.592 78.0435 40.696C76.0595 38.744 75.0675 36.168 75.0675 32.968V19H78.6675V32.872C78.6675 35.08 79.2915 36.84 80.5395 38.152C81.7875 39.464 83.4035 40.12 85.3875 40.12C87.4035 40.12 89.1155 39.448 90.5235 38.104C91.9315 36.728 92.6355 34.968 92.6355 32.824V19H96.2355V43H92.6355ZM106.095 22.648C107.695 19.96 110.127 18.616 113.391 18.616C114.991 18.616 116.463 19.048 117.807 19.912C119.183 20.744 120.255 21.928 121.023 23.464C122.111 21.448 123.807 20.008 126.111 19.144C127.039 18.792 128.079 18.616 129.231 18.616C130.415 18.616 131.535 18.856 132.591 19.336C133.679 19.784 134.639 20.44 135.471 21.304C137.263 23.224 138.159 25.624 138.159 28.504V43H134.559V28.6C134.559 26.616 133.999 24.984 132.879 23.704C131.759 22.488 130.335 21.88 128.607 21.88C126.783 21.88 125.263 22.472 124.047 23.656C122.767 24.872 122.127 26.536 122.127 28.648V43H118.527V28.6C118.527 26.616 117.967 24.984 116.847 23.704C115.727 22.488 114.303 21.88 112.575 21.88C110.751 21.88 109.231 22.472 108.015 23.656C106.735 24.872 106.095 26.536 106.095 28.648V43H102.495V19H106.095V22.648Z" fill="#22CAFF"/>
</svg>
